<?xml version='1.0' encoding='UTF-8'?>
<svg width="800px" height="600px" viewBox="0 0 211.6667 158.75" version="1.1" xmlns="http://www.w3.org/2000/svg" id="svg8">
  <defs id="defs2" />
  <rect x="0" y="-2.4999999E-06" width="211.66666" height="158.75" id="rect849" style="opacity:1;vector-effect:none;fill:#efebe9;fill-opacity:1;fill-rule:nonzero;stroke:none;stroke-width:0.06575502;stroke-linecap:round;stroke-linejoin:round;stroke-miterlimit:4;stroke-dasharray:none;stroke-dashoffset:0;stroke-opacity:1;paint-order:normal" />
  <g id="layer1" transform="translate(0, -138.24998)">
    <path d="m 92.048641,138.14739 c 0,0 -15.482637,18.48697 -7.999093,42.80849 19.210292,58.62522 -14.676287,54.67008 3.347586,98.13704 4.056224,9.78212 -3.741773,18.4416 -3.741773,18.4416 l 50.246669,-0.26727 c -20.21936,-40.0022 -6.99806,-48.25915 -3.4745,-79.37905 3.33093,-29.4186 -15.37138,-57.09854 1.98715,-79.26834 z" id="path815" style="fill:#1976d2;fill-opacity:1;stroke:none;stroke-width:0.26458332px;stroke-linecap:butt;stroke-linejoin:miter;stroke-opacity:1" />
    <path d="m 122.68625,140.64879 c 0,0 -6.35785,6.68384 -7.38987,11.60929 -1.03201,4.92546 -1.17367,8.0455 -0.83271,12.07867 0.20113,2.37926 -0.12729,5.35194 1.68467,6.99209 0.75754,0.68572 2.20837,1.03046 3.04632,0.4718 7.31875,-4.87942 -1.07691,-15.70155 5.41943,-25.47277 3.25737,-4.89948 0.10323,-8.13966 -1.92784,-5.67908 z" id="path817" style="fill:#1e88e5;fill-opacity:1;stroke:none;stroke-width:0.20992419px;stroke-linecap:butt;stroke-linejoin:miter;stroke-opacity:1" />
    <path d="m 92.072811,138.41466 c 0,0 -15.482638,18.48697 -7.999094,42.80849 19.210283,58.62522 -14.676286,54.67008 3.347586,98.13704 4.056225,9.78212 -3.741773,18.4416 -3.741773,18.4416 l 13.205,-0.26727 c -20.219358,-40.0022 -8.58556,-48.25915 -5.062,-79.37905 3.33093,-29.4186 -22.069235,-52.55496 3.57465,-79.26834 z" id="path815-3" style="fill:#1565c0;fill-opacity:1;stroke:none;stroke-width:0.26458332px;stroke-linecap:butt;stroke-linejoin:miter;stroke-opacity:1" />
  </g>
  <g id="g921" transform="rotate(-90, 152.0977, 100.02224)">
    <path d="m 171.97916,76.729166 h 10.58334 c 2.64583,-7.9375 2.71265,-18.520834 -5.29167,-21.166667 -7.87068,2.645833 -7.9375,13.229167 -5.29167,21.166667 z" id="path854" style="fill:#804d00;fill-opacity:1;stroke:none;stroke-width:0.26458332px;stroke-linecap:butt;stroke-linejoin:miter;stroke-opacity:1" />
    <path d="m 172.77291,75.935415 h 8.99584 c 2.3151,-6.945313 2.50586,-16.999479 -4.49792,-19.314583 -6.88684,2.315104 -6.81302,12.36927 -4.49792,19.314583 z" id="path854-5" style="fill:#442900;fill-opacity:1;stroke:none;stroke-width:0.2315104px;stroke-linecap:butt;stroke-linejoin:miter;stroke-opacity:1" />
    <path d="m 173.30208,75.935415 h 7.9375 c 1.32292,-7.143749 3.03503,-16.470312 -3.96875,-18.785416 -6.88684,2.315104 -5.29167,11.641667 -3.96875,18.785416 z" id="path854-5-1" style="fill:#a1887f;fill-opacity:1;stroke:none;stroke-width:0.2315104px;stroke-linecap:butt;stroke-linejoin:miter;stroke-opacity:1" />
    <path d="m 181.93855,60.840326 c -0.93476,-1.958306 -2.43599,-3.481795 -4.66772,-4.219494 -2.19355,0.737393 -3.68094,2.259923 -4.61466,4.217054 1.96883,0.01628 7.26049,0.01628 9.28238,0.0024 z" id="path854-5-3" style="fill:#673e00;fill-opacity:1;stroke:none;stroke-width:0.2315104px;stroke-linecap:butt;stroke-linejoin:miter;stroke-opacity:1" />
    <path d="m 183.17739,66.177451 c -0.0506,-0.906447 -0.16188,-1.791315 -0.34238,-2.636357 -2.91835,-0.04109 -8.21001,-0.04109 -11.07966,-0.0056 -0.18374,0.845775 -0.29915,1.731504 -0.35421,2.638879 3.22386,-0.02854 8.51552,-0.02854 11.77625,0.0031 z" id="path854-5-5" style="fill:#673e00;fill-opacity:1;stroke:none;stroke-width:0.2315104px;stroke-linecap:butt;stroke-linejoin:miter;stroke-opacity:1" />
    <path d="m 182.86732,71.451173 c 0.14119,-0.873227 0.24252,-1.758175 0.29677,-2.639369 -3.24743,-0.02014 -8.53909,-0.02014 -11.76174,0.01876 0.0505,0.881187 0.1482,1.766017 0.28625,2.639021 2.9364,-0.03208 8.22806,-0.03208 11.17872,-0.01841 z" id="path854-5-6" style="fill:#673e00;fill-opacity:1;stroke:none;stroke-width:0.2315104px;stroke-linecap:butt;stroke-linejoin:miter;stroke-opacity:1" />
    <path d="m 172.77291,75.935415 h 8.99584 c 0.19803,-0.594082 0.38051,-1.210911 0.54428,-1.843696 -2.39637,-0.0084 -7.68803,-0.0084 -10.08146,0.0023 0.16213,0.631977 0.34355,1.248029 0.54134,1.841389 z" id="path854-5-8" style="fill:#673e00;fill-opacity:1;stroke:none;stroke-width:0.2315104px;stroke-linecap:butt;stroke-linejoin:miter;stroke-opacity:1" />
  </g>
</svg>