<?xml version="1.0" encoding="UTF-8" standalone="no"?>
<svg
   xmlns:dc="http://purl.org/dc/elements/1.1/"
   xmlns:cc="http://creativecommons.org/ns#"
   xmlns:rdf="http://www.w3.org/1999/02/22-rdf-syntax-ns#"
   xmlns:svg="http://www.w3.org/2000/svg"
   xmlns="http://www.w3.org/2000/svg"
   xmlns:sodipodi="http://sodipodi.sourceforge.net/DTD/sodipodi-0.dtd"
   xmlns:inkscape="http://www.inkscape.org/namespaces/inkscape"
   xml:space="preserve"
   width="128"
   height="128"
   version="1.1"
   id="svg26"
   sodipodi:docname="Sheep.svg"
   inkscape:version="0.92.3 (2405546, 2018-03-11)"><metadata
   id="metadata32"><rdf:RDF><cc:Work
       rdf:about=""><dc:format>image/svg+xml</dc:format><dc:type
         rdf:resource="http://purl.org/dc/dcmitype/StillImage" /></cc:Work></rdf:RDF></metadata><defs
   id="defs30" /><sodipodi:namedview
   pagecolor="#ffffff"
   bordercolor="#666666"
   borderopacity="1"
   objecttolerance="10"
   gridtolerance="10"
   guidetolerance="10"
   inkscape:pageopacity="0"
   inkscape:pageshadow="2"
   inkscape:window-width="2560"
   inkscape:window-height="1017"
   id="namedview28"
   showgrid="false"
   inkscape:zoom="2.8284271"
   inkscape:cx="109.19554"
   inkscape:cy="6.9269892"
   inkscape:window-x="-8"
   inkscape:window-y="-8"
   inkscape:window-maximized="1"
   inkscape:current-layer="svg26" />
  <circle
   cx="64"
   cy="64"
   r="64"
   id="circle2"
   style="display:none;fill:#88c5cc" /><circle
   cx="64"
   cy="64"
   r="64"
   id="circle2-1"
   style="fill:#78909c;fill-opacity:1" />
  <path
   fill="#81BEC1"
   d="M118.145 98.105c-.063-.154-.121-.311-.188-.465-.081-.201-.161-.402-.245-.604-.081-.205-.163-.41-.248-.614-.081-.205-.163-.409-.248-.614-.082-.207-.165-.414-.251-.621-.081-.201-.16-.403-.244-.604-.085-.212-.17-.423-.258-.635-.079-.198-.156-.396-.24-.595-.08-.205-.162-.41-.248-.613-.08-.207-.164-.415-.25-.622-.08-.202-.16-.404-.244-.604-.082-.205-.164-.41-.248-.613-.082-.205-.164-.41-.248-.614-.082-.208-.166-.415-.252-.622-.08-.202-.16-.404-.244-.605-.082-.203-.163-.408-.248-.613-.081-.204-.163-.409-.248-.613-.082-.207-.165-.415-.251-.622-.081-.202-.161-.403-.245-.604-.081-.205-.163-.41-.248-.613-.081-.205-.163-.41-.248-.614-.081-.205-.163-.41-.248-.614-.082-.207-.165-.414-.251-.621-.081-.201-.161-.403-.245-.604-.081-.205-.163-.41-.247-.614-.081-.205-.163-.41-.248-.613-.081-.207-.165-.414-.251-.621-.08-.203-.16-.404-.244-.605-.082-.205-.164-.41-.248-.614-.082-.204-.164-.409-.248-.612-.082-.207-.166-.416-.252-.623-.082-.209-.166-.418-.254-.625-.078-.198-.156-.396-.24-.596-.08-.203-.162-.408-.248-.613-.08-.205-.162-.409-.248-.613-.082-.207-.164-.415-.25-.622-.082-.202-.162-.404-.246-.604-.08-.205-.162-.41-.247-.613-.081-.205-.163-.41-.248-.614-.082-.208-.165-.415-.251-.622-.081-.202-.161-.404-.245-.604-.081-.205-.163-.41-.247-.614-.081-.205-.163-.41-.248-.614-.082-.207-.165-.415-.251-.622-.081-.2-.161-.403-.245-.604-.081-.204-.163-.409-.248-.613-.081-.205-.162-.41-.248-.614-.08-.204-.162-.409-.248-.612-.082-.207-.164-.416-.251-.623-.081-.201-.161-.403-.245-.604-.08-.205-.162-.41-.248-.612-.08-.205-.162-.41-.248-.615-.082-.207-.164-.414-.25-.621-.082-.202-.162-.404-.246-.605-.08-.205-.162-.41-.248-.613-.08-.205-.162-.41-.248-.614-.084-.214-.17-.429-.26-.644-.078-.194-.156-.391-.236-.584-.081-.205-.163-.41-.247-.614-.081-.205-.163-.41-.248-.614-.082-.208-.165-.415-.251-.622-.081-.202-.161-.404-.245-.604-.081-.205-.163-.41-.248-.614-.081-.205-.163-.41-.248-.614-.081-.205-.163-.41-.248-.614-.082-.208-.165-.415-.251-.622-.081-.201-.161-.403-.245-.604-.081-.205-.163-.41-.248-.614-1.832-4.595-4.562-9.13-8.067-14.257-.229-.306-.92-1.203-1.938-2.373-.069-.188-.146-.373-.229-.555-.073-.21-.156-.416-.25-.617-.071-.208-.154-.411-.244-.61-.074-.209-.157-.412-.248-.613-.938-2.637-3.215-4.638-6.016-5.174-.053-.132-.105-.261-.166-.389-.074-.209-.154-.414-.248-.613-.074-.211-.156-.416-.248-.617-.074-.207-.156-.411-.248-.61-.073-.209-.154-.414-.248-.614-1.106-3.087-4.053-5.3-7.521-5.3-.256 0-.509.015-.759.038-.004 0-.008.001-.014.001-1.602.154-3.063.779-4.248 1.736-4.875-1.276-10.458-.589-11.438-.374h.012c-.605.095-1.231.215-1.867.374-.18-.146-.364-.28-.557-.409-.136-.094-.273-.174-.412-.257-.052-.029-.101-.063-.151-.091-.173-.099-.346-.186-.521-.267-.021-.011-.044-.021-.066-.033-.188-.086-.378-.163-.566-.231-.02-.007-.036-.015-.054-.021-.19-.066-.38-.127-.57-.179-.029-.008-.058-.017-.087-.024-.182-.048-.361-.087-.541-.119-.047-.01-.093-.021-.139-.027-.174-.029-.346-.05-.517-.067-.056-.006-.11-.015-.167-.02-.227-.02-.451-.029-.673-.029-.258 0-.513.014-.764.038-4.061.385-7.236 3.802-7.236 7.962 0 .015.002.028.002.043-3.729.385-6.692 3.332-7.114 7.049-.308.344-.591.67-.853.976-.017.021-.033.039-.049.059-.259.304-.488.581-.694.834-.004.005-.011.013-.015.018-.468.574-.795 1.002-.947 1.204-6.756 9.88-10.664 17.614-10.664 27.902 0 .43.122.84.326 1.207.054.217.141.42.248.614.054.217.141.42.249.615.053.215.14.418.247.61.054.217.141.42.248.614.054.217.141.42.248.613.054.217.141.42.247.613.055.217.142.421.25.616.053.215.14.418.246.61.055.218.142.42.248.613.055.219.142.42.248.614.055.219.143.424.251.619.055.215.141.416.246.606.054.219.142.422.248.614.054.218.142.42.248.614.054.217.141.421.249.615.053.216.14.419.247.611.054.217.141.42.248.613.054.217.141.42.248.614.054.217.141.421.249.614.053.217.14.42.247.611.054.219.141.42.248.614.054.217.141.42.248.614.054.217.141.42.248.613.054.217.141.422.249.614.053.218.14.419.247.612.054.217.141.42.247.613.055.218.142.42.248.615.055.217.142.42.249.614.054.216.141.418.247.611.055.217.142.42.248.614.055.217.142.42.248.612.055.218.142.423.249.615.054.216.141.419.247.612.055.217.142.421.248.613.054.217.141.42.248.613.054.219.143.424.251.618.053.216.14.418.247.61.053.217.14.42.247.612.054.218.141.421.248.613.054.218.141.421.248.614.054.218.141.421.249.615.053.215.14.418.247.611.054.217.141.42.248.613.054.218.141.422.248.613.054.218.141.422.249.615.053.217.14.42.247.612.054.217.141.421.247.613.055.218.142.42.248.614.055.217.142.42.248.613.055.217.142.422.249.615.054.216.141.419.247.611.055.218.142.422.248.613.055.217.142.42.248.614.055.218.142.421.249.616.053.215.141.418.247.609.054.218.141.42.248.615.054.217.141.42.248.613.054.217.141.421.249.615.053.216.14.418.247.611.054.217.141.42.248.613.054.219.142.424.25.618.054.215.14.418.247.608.054.219.141.423.249.615.053.217.14.42.247.612.054.217.141.421.248.614.054.217.141.42.248.613.054.218.141.422.249.615.053.215.14.418.247.611.054.217.141.42.247.613.055.218.142.422.248.613.055.219.142.422.249.615.054.217.141.419.247.612.055.217.142.421.248.614.055.217.142.42.248.613.055.217.142.422.248.613.055.217.142.421.249.615.053.216.141.419.247.611.054.217.141.422.248.613.054.219.141.42.248.614.054.217.141.421.249.616.053.215.14.418.247.611.054.217.141.42.248.612.054.218.141.421.248.614.054.217.141.421.249.615.053.216.14.418.247.611.054.219.142.424.251.617.053.215.139.418.246.609.051.205.135.396.232.578 5.67 1.646 11.656 2.545 17.856 2.545 22.807.026 42.811-11.911 54.147-29.869z"
   id="path4"
   style="fill:#607d8b;fill-opacity:1" />
  <path
   fill="#FDFCF6"
   d="M86.461 64.947c-2.953-11.471 1.203-22.446 4.314-25.688l.013.005c-.004-.005-.009-.009-.013-.014-.426-3.714-3.389-6.655-7.111-7.04 0-.015.002-.028.002-.043 0-4.418-3.582-8-8-8-1.902 0-3.646.667-5.02 1.775-2.742-.688-5.337-.692-6.646-.692-1.309 0-3.904.005-6.646.692-1.372-1.108-3.116-1.775-5.02-1.775-4.418 0-8 3.582-8 8 0 .015.002.028.002.043-3.729.385-6.693 3.332-7.114 7.049 3.112 3.242 7.27 14.219 4.315 25.688.271 18.354 2.598 37.803 22.463 37.803 19.863 0 22.191-19.443 22.463-37.796-.001-.003-.001-.005-.002-.007z"
   id="path6" />
  <path
   d="M69.834 26.896c.104-.271.602-.813.813-.953-4.875-1.276-10.457-.59-11.437-.374 1.386.044 8.853.577 10.624 1.327zm20.954 12.368c-.004-.005-.009-.009-.013-.014-.426-3.714-3.389-6.655-7.111-7.04 0-.015.002-.028.002-.043 0-4.418-3.582-8-8-8-.514 0-1.016.053-1.501.146 3.701.702 6.501 3.949 6.501 7.854 0 .015-.002.028-.002.043 3.725.385 6.688 3.326 7.111 7.04.004.005.009.009.013.014l-.013-.005c-3.111 3.242-7.27 14.22-4.314 25.688.001.002.001.004.002.007-.264 17.878-2.486 36.782-20.963 37.749.491.025.986.047 1.5.047 19.863 0 22.191-19.443 22.463-37.796-.001-.003-.001-.005-.002-.007-2.953-11.471 1.203-22.446 4.314-25.688l.013.005zM55.084 26.729c.718-.245 1.506-.685 2.27-.785-1.603-1.297-3.391-1.775-5.02-1.775-.513 0-1.013.053-1.499.146 1.315.248 3.247 1.604 4.249 2.414z"
   id="path8"
   fill="#EBE6C7"
   style="fill:#d7ccc8;fill-opacity:1" />
  <path
   fill="#FFE1D9"
   d="M103.175 72.105c.524-.475.825-1.147.825-1.855 0-10.288-3.908-18.021-10.73-27.996-.269-.357-1.162-1.521-2.479-2.99l-.013-.005c-3.111 3.242-7.27 14.22-4.314 25.688.001.002.001.004.002.007v-.007c4.287 4.232 9.861 7.287 14.783 7.787.7.084 1.397-.155 1.926-.629z"
   id="path10" />
  <path
   fill="#F2D6CE"
   d="M93.27 42.254c-.269-.357-1.162-1.521-2.479-2.99l-.013-.005c-.447.468-.918 1.111-1.387 1.879.438.537.741.935.879 1.116C97.092 52.229 101 59.962 101 70.25c0 .708-.301 1.382-.825 1.855-.17.15-.36.271-.562.369.551.113 1.096.205 1.633.26.703.084 1.4-.155 1.929-.629.524-.475.825-1.147.825-1.855 0-10.288-3.908-18.021-10.73-27.996z"
   id="path12" />
  <path
   fill="#FFE1D9"
   d="M37.222 39.259c-1.346 1.503-2.267 2.702-2.558 3.089C27.908 52.229 24 59.962 24 70.25c0 .708.301 1.382.825 1.855.523.473 1.229.713 1.929.629 4.922-.5 10.496-3.555 14.783-7.787 2.953-11.468-1.203-22.446-4.315-25.688z"
   id="path14" />
  <path
   fill="#F2D6CE"
   d="M37.222 39.259c-.643.718-1.184 1.361-1.609 1.886 2.774 4.557 5.452 13.99 2.926 23.804-3.819 3.771-8.66 6.602-13.151 7.527.422.215.896.315 1.368.26 4.922-.5 10.496-3.555 14.783-7.787 2.951-11.47-1.205-22.448-4.317-25.69z"
   id="path16" />
  <path
   fill="#FFE1D9"
   d="M64 68.668c-9.646 0-17.837 6.211-20.806 14.852C45.511 94.42 51 102.75 64 102.75s18.488-8.33 20.807-19.23C81.837 74.879 73.646 68.668 64 68.668z"
   id="path18" />
  <path
   fill="#F2D6CE"
   d="M66.738 102.604c.488-.049.968-.108 1.433-.186.2-.033.401-.064.599-.102.537-.104 1.06-.223 1.563-.357.085-.023.176-.04.26-.064.584-.166 1.145-.357 1.686-.569.146-.06.285-.122.429-.183.397-.168.787-.348 1.163-.539.152-.08.308-.16.459-.242.393-.217.771-.445 1.139-.688.094-.061.19-.117.281-.18.453-.313.887-.645 1.302-.994.087-.073.167-.152.252-.229.327-.287.644-.584.946-.896.111-.112.22-.229.328-.345.287-.313.564-.635.835-.967.077-.097.157-.188.231-.285.342-.438.666-.891.974-1.36.028-.047.059-.099.089-.146.271-.424.527-.859.773-1.309.071-.13.143-.262.211-.395.211-.397.41-.807.604-1.221.056-.121.113-.238.167-.359.479-1.077.9-2.206 1.273-3.381.041-.131.078-.264.119-.395.146-.479.283-.961.412-1.451.037-.135.072-.27.107-.404.154-.605.3-1.221.434-1.844-.563-1.634-1.312-3.18-2.22-4.611-1.676 12.578-6.438 23.02-19.972 23.785.459.022.906.059 1.385.059.734 0 1.438-.035 2.127-.087.207-.013.408-.035.611-.055z"
   id="path20" />
  <path
   fill="#70CCBD"
   d="M56.5 62.75c-1.382 0-2.5-1.118-2.5-2.5v-7.5c0-1.382 1.118-2.5 2.5-2.5s2.5 1.118 2.5 2.5v7.5c0 1.382-1.118 2.5-2.5 2.5zm15 0c-1.382 0-2.5-1.118-2.5-2.5v-7.5c0-1.382 1.118-2.5 2.5-2.5s2.5 1.118 2.5 2.5v7.5c0 1.382-1.118 2.5-2.5 2.5z"
   id="path22" />
  <path
   fill="#E6AFA0"
   d="M64 92.75c-.64 0-1.279-.244-1.768-.732l-7.5-7.5c-.978-.977-.978-2.559 0-3.535.977-.976 2.559-.977 3.534 0l5.732 5.732 5.73-5.732c.979-.977 2.561-.977 3.535 0 .978.979.979 2.561 0 3.535l-7.5 7.5c-.484.488-1.122.732-1.763.732z"
   id="path24" />
</svg>