<?xml version="1.0" encoding="UTF-8" standalone="no"?>
<!-- Generator: Adobe Illustrator 15.1.0, SVG Export Plug-In . SVG Version: 6.00 Build 0)  -->

<svg
   xmlns:dc="http://purl.org/dc/elements/1.1/"
   xmlns:cc="http://creativecommons.org/ns#"
   xmlns:rdf="http://www.w3.org/1999/02/22-rdf-syntax-ns#"
   xmlns:svg="http://www.w3.org/2000/svg"
   xmlns="http://www.w3.org/2000/svg"
   xmlns:sodipodi="http://sodipodi.sourceforge.net/DTD/sodipodi-0.dtd"
   xmlns:inkscape="http://www.inkscape.org/namespaces/inkscape"
   version="1.1"
   id="Layer_1"
   x="0px"
   y="0px"
   width="128px"
   height="128px"
   viewBox="0 0 128 128"
   enable-background="new 0 0 128 128"
   xml:space="preserve"
   sodipodi:docname="Wolf.svg"
   inkscape:version="0.92.3 (2405546, 2018-03-11)"><metadata
   id="metadata67"><rdf:RDF><cc:Work
       rdf:about=""><dc:format>image/svg+xml</dc:format><dc:type
         rdf:resource="http://purl.org/dc/dcmitype/StillImage" /></cc:Work></rdf:RDF></metadata><defs
   id="defs65" /><sodipodi:namedview
   pagecolor="#ffffff"
   bordercolor="#666666"
   borderopacity="1"
   objecttolerance="10"
   gridtolerance="10"
   guidetolerance="10"
   inkscape:pageopacity="0"
   inkscape:pageshadow="2"
   inkscape:window-width="2560"
   inkscape:window-height="1017"
   id="namedview63"
   showgrid="false"
   inkscape:zoom="1.84375"
   inkscape:cx="227.70776"
   inkscape:cy="34.731899"
   inkscape:window-x="-8"
   inkscape:window-y="-8"
   inkscape:window-maximized="1"
   inkscape:current-layer="g60" />
<g
   id="g60">
	<circle
   cx="64"
   cy="64"
   r="64"
   id="circle2"
   style="fill:#78909c;fill-opacity:1" />
	<path
   d="m 122.773,89.346 c -0.028,-0.063 -0.047,-0.135 -0.08,-0.197 -0.047,-0.181 -0.12,-0.35 -0.207,-0.514 -0.047,-0.18 -0.12,-0.348 -0.207,-0.511 -0.047,-0.181 -0.12,-0.351 -0.206,-0.515 -0.048,-0.18 -0.121,-0.35 -0.207,-0.512 -0.048,-0.18 -0.121,-0.35 -0.207,-0.513 -0.048,-0.181 -0.121,-0.351 -0.207,-0.515 -0.048,-0.18 -0.121,-0.35 -0.207,-0.512 -0.047,-0.18 -0.12,-0.348 -0.206,-0.51 -0.047,-0.181 -0.12,-0.352 -0.207,-0.515 -0.047,-0.183 -0.121,-0.353 -0.207,-0.515 -0.047,-0.18 -0.121,-0.35 -0.207,-0.512 -0.047,-0.181 -0.121,-0.35 -0.207,-0.514 -0.047,-0.182 -0.121,-0.35 -0.207,-0.512 -0.047,-0.182 -0.12,-0.351 -0.207,-0.514 -0.047,-0.181 -0.12,-0.35 -0.206,-0.514 -0.048,-0.18 -0.12,-0.348 -0.207,-0.512 -0.048,-0.182 -0.12,-0.352 -0.207,-0.514 -0.047,-0.18 -0.12,-0.35 -0.206,-0.512 -0.048,-0.182 -0.121,-0.35 -0.207,-0.514 -0.048,-0.182 -0.121,-0.35 -0.207,-0.512 -0.048,-0.182 -0.121,-0.352 -0.207,-0.515 -0.048,-0.179 -0.121,-0.349 -0.207,-0.511 -0.047,-0.18 -0.121,-0.35 -0.205,-0.51 -0.047,-0.184 -0.121,-0.354 -0.209,-0.519 -0.047,-0.179 -0.121,-0.349 -0.207,-0.511 -0.047,-0.182 -0.121,-0.352 -0.207,-0.516 -0.047,-0.18 -0.121,-0.348 -0.207,-0.511 -0.047,-0.181 -0.121,-0.351 -0.207,-0.514 -0.047,-0.179 -0.121,-0.349 -0.207,-0.511 -0.047,-0.183 -0.121,-0.352 -0.207,-0.516 -0.047,-0.18 -0.119,-0.348 -0.207,-0.511 -0.047,-0.181 -0.119,-0.351 -0.205,-0.515 -0.049,-0.18 -0.121,-0.35 -0.207,-0.512 -0.049,-0.18 -0.121,-0.35 -0.207,-0.513 -0.047,-0.181 -0.121,-0.351 -0.207,-0.514 -0.047,-0.179 -0.121,-0.351 -0.207,-0.511 -0.047,-0.183 -0.121,-0.352 -0.207,-0.516 -0.047,-0.178 -0.12,-0.346 -0.205,-0.508 -0.048,-0.184 -0.121,-0.354 -0.208,-0.518 -0.047,-0.18 -0.121,-0.35 -0.207,-0.512 -0.047,-0.181 -0.121,-0.35 -0.207,-0.514 -0.047,-0.18 -0.121,-0.348 -0.207,-0.512 -0.047,-0.182 -0.121,-0.351 -0.207,-0.514 -0.047,-0.181 -0.121,-0.35 -0.207,-0.514 -0.047,-0.18 -0.121,-0.348 -0.207,-0.512 -0.047,-0.182 -0.12,-0.352 -0.207,-0.514 -0.047,-0.18 -0.12,-0.35 -0.207,-0.512 -0.047,-0.182 -0.12,-0.35 -0.206,-0.514 -0.048,-0.181 -0.121,-0.349 -0.207,-0.512 -0.048,-0.181 -0.121,-0.351 -0.207,-0.514 -0.048,-0.179 -0.121,-0.349 -0.207,-0.511 -0.047,-0.181 -0.121,-0.351 -0.207,-0.513 -0.047,-0.18 -0.119,-0.349 -0.205,-0.511 -0.047,-0.181 -0.121,-0.351 -0.207,-0.515 -0.047,-0.181 -0.121,-0.35 -0.207,-0.514 -0.047,-0.181 -0.121,-0.349 -0.207,-0.512 -0.047,-0.181 -0.121,-0.351 -0.207,-0.514 -0.047,-0.179 -0.121,-0.349 -0.207,-0.511 -0.047,-0.182 -0.121,-0.351 -0.207,-0.515 -0.047,-0.18 -0.121,-0.348 -0.207,-0.511 -0.047,-0.181 -0.121,-0.35 -0.207,-0.513 -0.047,-0.182 -0.121,-0.35 -0.207,-0.514 -0.047,-0.181 -0.121,-0.349 -0.207,-0.512 -0.047,-0.181 -0.12,-0.351 -0.207,-0.514 -0.047,-0.179 -0.12,-0.35 -0.206,-0.511 -0.048,-0.182 -0.121,-0.351 -0.207,-0.515 -0.048,-0.18 -0.121,-0.348 -0.207,-0.511 -0.047,-0.181 -0.121,-0.351 -0.207,-0.514 -0.047,-0.179 -0.12,-0.347 -0.205,-0.509 -0.047,-0.181 -0.121,-0.352 -0.208,-0.516 -0.047,-0.181 -0.121,-0.351 -0.207,-0.514 -0.047,-0.18 -0.121,-0.35 -0.207,-0.512 -0.047,-0.181 -0.121,-0.35 -0.207,-0.514 -0.047,-0.18 -0.121,-0.348 -0.207,-0.511 -0.047,-0.182 -0.121,-0.352 -0.207,-0.515 -0.047,-0.179 -0.121,-0.349 -0.207,-0.511 -0.047,-0.181 -0.121,-0.35 -0.207,-0.514 -0.047,-0.181 -0.121,-0.349 -0.207,-0.511 -0.047,-0.182 -0.121,-0.352 -0.207,-0.515 -0.047,-0.179 -0.121,-0.349 -0.207,-0.511 -0.047,-0.18 -0.119,-0.35 -0.207,-0.513 -0.047,-0.182 -0.119,-0.352 -0.205,-0.515 -0.049,-0.179 -0.121,-0.349 -0.207,-0.511 -0.049,-0.18 -0.121,-0.348 -0.207,-0.51 -0.047,-0.182 -0.119,-0.353 -0.207,-0.516 -0.047,-0.181 -0.121,-0.351 -0.207,-0.514 -0.047,-0.179 -0.121,-0.349 -0.207,-0.511 -0.047,-0.182 -0.121,-0.351 -0.207,-0.515 -0.047,-0.18 -0.12,-0.348 -0.207,-0.511 -0.047,-0.181 -0.12,-0.35 -0.207,-0.513 -0.047,-0.181 -0.12,-0.351 -0.206,-0.515 -0.048,-0.18 -0.121,-0.348 -0.207,-0.511 -0.048,-0.181 -0.121,-0.351 -0.207,-0.514 -0.048,-0.179 -0.121,-0.349 -0.207,-0.511 -0.048,-0.182 -0.121,-0.351 -0.207,-0.515 -0.047,-0.18 -0.121,-0.348 -0.207,-0.511 -0.047,-0.181 -0.12,-0.351 -0.207,-0.514 -0.047,-0.18 -0.12,-0.35 -0.206,-0.512 -0.048,-0.179 -0.12,-0.348 -0.205,-0.51 -0.048,-0.182 -0.121,-0.352 -0.208,-0.517 -0.047,-0.179 -0.121,-0.35 -0.207,-0.511 -0.047,-0.182 -0.121,-0.351 -0.207,-0.515 -0.047,-0.18 -0.121,-0.348 -0.207,-0.511 -0.047,-0.182 -0.12,-0.352 -0.207,-0.514 -0.047,-0.18 -0.12,-0.35 -0.207,-0.512 -0.047,-0.181 -0.12,-0.35 -0.206,-0.514 -0.048,-0.18 -0.121,-0.348 -0.207,-0.511 -0.048,-0.182 -0.121,-0.351 -0.207,-0.514 -0.048,-0.181 -0.121,-0.35 -0.207,-0.514 -0.048,-0.18 -0.121,-0.348 -0.207,-0.511 C 99.894,32.539 99.82,32.369 99.734,32.206 99.687,32.027 99.613,31.857 99.527,31.695 99.48,31.514 99.406,31.345 99.32,31.181 99.273,31.003 99.201,30.835 99.115,30.673 99.068,30.49 98.994,30.32 98.908,30.155 98.859,29.976 98.787,29.806 98.701,29.644 98.652,29.463 98.58,29.293 98.494,29.129 98.447,28.949 98.373,28.781 98.287,28.618 98.24,28.437 98.166,28.268 98.08,28.105 98.033,27.924 97.959,27.755 97.873,27.591 97.712,26.975 97.31,26.437 96.746,26.107 95.998,25.669 95.074,25.669 94.326,26.099 L 78.347,35.23 c -0.466,-0.164 -0.948,-0.316 -1.438,-0.463 -2.24,-0.674 -4.604,-1.113 -6.938,-1.377 -0.074,-0.01 -0.146,-0.02 -0.225,-0.027 -0.504,-0.055 -1.002,-0.1 -1.5,-0.139 -0.15,-0.012 -0.301,-0.026 -0.452,-0.037 -0.466,-0.032 -0.923,-0.057 -1.378,-0.075 -0.18,-0.008 -0.357,-0.02 -0.537,-0.024 -0.635,-0.021 -1.258,-0.034 -1.864,-0.034 -5.294,0 -10.329,0.77 -14.332,2.178 L 33.7,26.115 c -0.75,-0.429 -1.671,-0.429 -2.419,0.008 -0.748,0.437 -1.208,1.232 -1.208,2.097 v 18.783 c -2.424,4.684 -2.062,13.464 -2.062,19.065 -1.795,4.485 -0.37,12.177 0.665,14.434 0.069,0.191 0.139,0.361 0.205,0.509 0.07,0.193 0.139,0.364 0.207,0.515 0.071,0.192 0.141,0.365 0.209,0.516 0.069,0.191 0.138,0.361 0.205,0.509 0.071,0.194 0.14,0.366 0.209,0.517 0.067,0.188 0.135,0.354 0.2,0.5 0.072,0.197 0.143,0.373 0.213,0.523 0.069,0.191 0.138,0.361 0.205,0.51 0.07,0.193 0.141,0.365 0.209,0.518 0.069,0.189 0.138,0.359 0.205,0.508 0.07,0.193 0.141,0.367 0.209,0.516 0.069,0.191 0.138,0.361 0.205,0.51 0.069,0.192 0.139,0.363 0.207,0.514 0.069,0.193 0.141,0.367 0.209,0.516 0.068,0.191 0.138,0.361 0.205,0.51 0.069,0.193 0.141,0.365 0.209,0.518 0.068,0.189 0.138,0.359 0.205,0.508 0.069,0.194 0.141,0.367 0.209,0.518 0.068,0.189 0.138,0.359 0.205,0.509 0.069,0.192 0.141,0.366 0.209,0.517 0.066,0.188 0.135,0.354 0.199,0.499 0.072,0.196 0.143,0.37 0.211,0.521 0.071,0.193 0.141,0.365 0.209,0.518 0.069,0.189 0.139,0.359 0.205,0.508 0.071,0.194 0.141,0.367 0.209,0.518 0.069,0.189 0.139,0.359 0.205,0.509 0.071,0.192 0.141,0.366 0.209,0.517 0.069,0.19 0.139,0.36 0.205,0.51 0.071,0.192 0.141,0.365 0.209,0.516 0.069,0.191 0.139,0.361 0.205,0.509 0.07,0.192 0.14,0.364 0.207,0.513 0.071,0.194 0.14,0.367 0.209,0.518 0.069,0.189 0.138,0.359 0.205,0.509 0.071,0.194 0.14,0.366 0.209,0.517 0.069,0.19 0.138,0.36 0.205,0.51 0.069,0.188 0.137,0.357 0.204,0.507 0.071,0.194 0.141,0.368 0.209,0.518 0.07,0.194 0.141,0.366 0.209,0.517 0.068,0.19 0.138,0.361 0.205,0.51 0.07,0.191 0.139,0.363 0.207,0.513 0.069,0.194 0.141,0.366 0.209,0.517 0.068,0.19 0.138,0.36 0.205,0.51 0.069,0.193 0.141,0.365 0.209,0.516 0.068,0.191 0.138,0.361 0.205,0.51 0.069,0.193 0.141,0.365 0.209,0.518 0.068,0.189 0.138,0.359 0.205,0.508 0.069,0.193 0.141,0.367 0.209,0.516 0.068,0.191 0.138,0.361 0.205,0.51 0.069,0.193 0.141,0.365 0.209,0.518 0.068,0.189 0.138,0.359 0.204,0.508 0.068,0.188 0.137,0.357 0.202,0.504 0.072,0.198 0.144,0.373 0.213,0.525 0.069,0.189 0.139,0.359 0.205,0.508 0.071,0.194 0.141,0.367 0.209,0.516 0.069,0.191 0.139,0.361 0.205,0.511 0.071,0.192 0.141,0.364 0.209,0.517 0.069,0.19 0.139,0.36 0.205,0.508 0.071,0.194 0.141,0.367 0.209,0.518 0.069,0.189 0.139,0.359 0.205,0.509 0.07,0.192 0.139,0.364 0.207,0.513 0.071,0.194 0.141,0.367 0.209,0.518 0.069,0.189 0.138,0.359 0.205,0.509 0.071,0.192 0.14,0.366 0.209,0.517 0.069,0.19 0.138,0.36 0.205,0.51 0.071,0.192 0.14,0.365 0.209,0.516 0.069,0.191 0.138,0.361 0.205,0.509 0.069,0.19 0.137,0.359 0.204,0.507 0.071,0.195 0.141,0.368 0.209,0.52 0.069,0.191 0.139,0.363 0.207,0.513 0.069,0.193 0.141,0.366 0.209,0.517 0.068,0.19 0.138,0.36 0.205,0.51 0.069,0.193 0.141,0.365 0.209,0.516 0.068,0.191 0.138,0.361 0.205,0.51 0.069,0.193 0.141,0.365 0.209,0.517 0.068,0.19 0.138,0.36 0.205,0.509 0.069,0.193 0.141,0.366 0.209,0.516 0.068,0.191 0.138,0.361 0.204,0.51 0.07,0.192 0.14,0.363 0.207,0.514 0.07,0.193 0.142,0.365 0.209,0.516 0.069,0.191 0.139,0.361 0.205,0.51 0.07,0.193 0.142,0.365 0.209,0.518 0.067,0.188 0.136,0.354 0.2,0.499 0.072,0.196 0.144,0.373 0.213,0.522 0.069,0.191 0.139,0.361 0.205,0.51 0.071,0.193 0.141,0.365 0.209,0.518 0.069,0.189 0.139,0.36 0.205,0.508 0.07,0.193 0.14,0.364 0.207,0.514 0.071,0.193 0.14,0.365 0.209,0.518 0.002,0.006 0.004,0.01 0.007,0.018 5.45,1.508 11.186,2.332 17.115,2.332 26.335,-0.001 48.95,-15.919 58.768,-38.655 z"
   id="path4"
   inkscape:connector-curvature="0"
   style="fill:#607d8b;fill-opacity:1" />
	<g
   id="g58">
		<path
   d="M 28,66.137 C 28,60.535 27.637,51.754 30.061,47.074 V 28.289 c 0,-0.864 0.461,-1.661 1.208,-2.097 0.748,-0.438 1.669,-0.438 2.419,-0.009 l 15.98,9.131 c 4.003,-1.407 9.038,-2.178 14.332,-2.178 5.293,0 10.329,0.771 14.332,2.178 l 15.979,-9.131 c 0.748,-0.429 1.672,-0.429 2.42,0.009 0.748,0.436 1.207,1.231 1.207,2.097 V 47.072 C 100.363,51.755 100,60.536 100,66.137 Z"
   id="path6"
   inkscape:connector-curvature="0"
   style="fill:#808080" />
		<g
   id="g14">
			<path
   d="m 77.271,35.918 1.057,-0.604 C 73.765,33.682 68.473,33.135 64,33.135 c -0.504,0 -1.002,0.015 -1.5,0.027 4.738,0.133 11.148,1.483 14.771,2.756 z"
   id="path8"
   inkscape:connector-curvature="0"
   style="fill:#737373" />
			<path
   d="m 47.64,35.918 c 0.621,-0.219 1.275,-0.416 1.943,-0.604 L 33.687,26.182 c -0.75,-0.429 -1.672,-0.429 -2.42,0.009 -0.09,0.052 -0.159,0.125 -0.24,0.187 z"
   id="path10"
   inkscape:connector-curvature="0"
   style="fill:#737373" />
			<path
   d="M 97.939,47.071 V 28.288 c 0,-0.864 -0.461,-1.661 -1.209,-2.097 -0.748,-0.438 -1.672,-0.438 -2.418,-0.009 l -0.342,0.194 c 0.598,0.456 0.969,1.149 0.969,1.91 V 47.07 C 97.363,51.753 97,60.534 97,66.135 h 3 c 0,-5.6 0.363,-14.381 -2.061,-19.064 z"
   id="path12"
   inkscape:connector-curvature="0"
   style="fill:#737373" />
		</g>
		<path
   d="m 72.916,85.936 c 0,2.648 -3.977,5.848 -8.916,5.848 -4.939,0 -8.916,-3.197 -8.916,-5.848 v -4.313 h 17.832 z"
   id="path16"
   inkscape:connector-curvature="0"
   style="fill:#f5f5f5" />
		<path
   d="m 100,66.137 c -5,-4 -23,-10.104 -36,-10.104 -13,0 -31,6.105 -36,10.104 -2,5 0,14 1,15 2,-1 6,-2 9,-2 -2,2 -3,9 -3,12 4,-2 8,-1 10,1 3,9 16,10 19,10 3,0 16,-1 19,-10 2,-2 5,-3 10,-1 0,-3 -1,-10 -3,-12 3,0 7,1 9,2 1,-1 3,-10 1,-15 z"
   id="path18"
   inkscape:connector-curvature="0"
   style="fill:#e6e6e6" />
		<g
   id="g26">
			<path
   d="m 85.49,78.57 c 1.793,1.793 3.145,8.162 3.33,11.507 1.215,0.096 2.596,0.426 4.18,1.06 0,-2.766 -0.749,-8.832 -2.916,-12 -1.545,-0.34 -3.18,-0.567 -4.594,-0.567 z"
   id="path20"
   inkscape:connector-curvature="0"
   style="fill:#cccccc" />
			<path
   d="m 78.855,92.137 c -2.529,7.59 -12.17,9.489 -16.93,9.899 0.886,0.075 1.603,0.101 2.072,0.101 3,0 16,-1 19,-10 0.843,-0.843 1.865,-1.504 3.141,-1.842 -3.417,-0.725 -5.675,0.234 -7.283,1.842 z"
   id="path22"
   inkscape:connector-curvature="0"
   style="fill:#cccccc" />
			<path
   d="m 100,66.137 c -1.16,-0.929 -3.027,-1.971 -5.365,-3.021 0.551,1.145 0.938,2.146 1.215,3.019 0.002,0.002 0.006,0.003 0.008,0.005 0.393,0.982 0.627,2.121 0.75,3.32 0.002,0.018 0.004,0.034 0.008,0.05 h -0.002 c 0.377,3.813 -0.411,8.246 -1.158,10.402 1.396,0.354 2.668,0.788 3.547,1.228 C 100,80.137 102,71.137 100,66.137 Z"
   id="path24"
   inkscape:connector-curvature="0"
   style="fill:#cccccc" />
		</g>
		<g
   id="g40">
			<g
   id="g32">
				<circle
   cx="51"
   cy="58.925999"
   r="5"
   id="circle28"
   style="fill:#f5f5f5" />
				<circle
   cx="51"
   cy="58.925999"
   r="2"
   id="circle30"
   style="fill:#242424" />
			</g>
			<g
   id="g38">
				<circle
   cx="77"
   cy="58.925999"
   r="5"
   id="circle34"
   style="fill:#f5f5f5" />
				<circle
   cx="77"
   cy="58.925999"
   r="2"
   id="circle36"
   style="fill:#242424" />
			</g>
		</g>
		<path
   d="m 64,95.137 c -7,0 -10,-10.378 -10,-13.867 0,-3.487 4.46,-3.832 10,-3.832 5.539,0 10,0.345 10,3.832 0,3.489 -3,13.867 -10,13.867 z"
   id="path42"
   inkscape:connector-curvature="0"
   style="fill:#f5f5f5" />
		<g
   id="g46">
			<path
   d="m 74,81.621 v -25 c 0,-3.172 -4.461,-7 -10,-7 -5.54,0 -10,3.828 -10,7 v 25 z"
   id="path44"
   inkscape:connector-curvature="0"
   style="fill:#737373" />
		</g>
		<polygon
   points="34.909,33.137 49.455,40.409 34.909,47.682 "
   id="polygon48"
   style="fill:#b3b3b3" />
		<polygon
   points="93.091,33.137 78.545,40.409 93.091,47.682 "
   id="polygon50"
   style="fill:#b3b3b3" />
		<path
   d="m 64,92.137 c -5.54,0 -10,-7.344 -10,-10.516 0,-3.172 4.46,-3.484 10,-3.484 5.539,0 10,0.313 10,3.484 0,3.171 -4.461,10.516 -10,10.516 z"
   id="path52"
   inkscape:connector-curvature="0"
   style="fill:#242424" />
		<path
   d="M 64,56.03 H 44.458 C 47.167,53.696 56.917,49.621 64,49.621 Z"
   id="path54"
   inkscape:connector-curvature="0"
   style="fill:#737373" />
		<path
   d="M 64,56.03 H 83.542 C 80.833,53.696 71.083,49.621 64,49.621 Z"
   id="path56"
   inkscape:connector-curvature="0"
   style="fill:#737373" />
	</g>
</g>
</svg>